HIERARCHY
ROOT root
{
	OFFSET	0	13.1	24.9
	CHANNELS 6  Xposition Yposition Zposition Xrotation Yrotation Zrotation
	JOINT spine_1
	{
		OFFSET	0	9.99999	0
		CHANNELS 3  Xrotation Yrotation Zrotation
		JOINT spine_2
		{
			OFFSET	0	112	-10
			CHANNELS 3  Xrotation Yrotation Zrotation
			JOINT spine_3
			{
				OFFSET	0	206.5	19.3
				CHANNELS 3  Xrotation Yrotation Zrotation
				JOINT spine_4
				{
					OFFSET	0	110.4	14.6
					CHANNELS 3  Xrotation Yrotation Zrotation
					JOINT neck_1
					{
						OFFSET	0	71.8	-50.3
						CHANNELS 3  Xrotation Yrotation Zrotation
						JOINT neck_2
						{
							OFFSET	0	86.2	-25.8
							CHANNELS 3  Xrotation Yrotation Zrotation
							JOINT head_ee
							{
								OFFSET	0	179.8	-8.7
								CHANNELS 3  Xrotation Yrotation Zrotation
								End Site
								{
									OFFSET	1	0	0
								}
							}
						}
					}
					JOINT left_clavicle
					{
						OFFSET	-43.2	22.4	-70.8
						CHANNELS 3  Xrotation Yrotation Zrotation
						JOINT left_shoulder
						{
							OFFSET	-93.9	-5.79999	48.7
							CHANNELS 3  Xrotation Yrotation Zrotation
							JOINT left_elbow
							{
								OFFSET	-291.4	-30.8	15.2
								CHANNELS 3  Xrotation Yrotation Zrotation
								JOINT left_lowarm_twist
								{
									OFFSET	-110.7	-3.89999	13.6
									CHANNELS 3  Xrotation Yrotation Zrotation
									JOINT left_hand
									{
										OFFSET	-110.7	-3.89999	13.6
										CHANNELS 3  Xrotation Yrotation Zrotation
										JOINT left_ee
										{
											OFFSET	-80.8	-5.10001	12.1
											CHANNELS 3  Xrotation Yrotation Zrotation
											End Site
											{
												OFFSET	1	0	0
											}
										}
									}
								}
							}
						}
					}
					JOINT right_clavicle
					{
						OFFSET	43.2	22.4	-70.8
						CHANNELS 3  Xrotation Yrotation Zrotation
						JOINT right_shoulder
						{
							OFFSET	93.9	-5.79999	48.7
							CHANNELS 3  Xrotation Yrotation Zrotation
							JOINT right_elbow
							{
								OFFSET	291.4	-30.8	15.2
								CHANNELS 3  Xrotation Yrotation Zrotation
								JOINT right_lowarm_twist
								{
									OFFSET	110.7	-3.89999	13.6
									CHANNELS 3  Xrotation Yrotation Zrotation
									JOINT right_hand
									{
										OFFSET	110.7	-3.89999	13.6
										CHANNELS 3  Xrotation Yrotation Zrotation
										JOINT right_ee
										{
											OFFSET	80.8	-5.10001	12.1
											CHANNELS 3  Xrotation Yrotation Zrotation
											End Site
											{
												OFFSET	1	0	0
											}
										}
									}
								}
							}
						}
					}
				}
			}
		}
	}
	JOINT left_hip
	{
		OFFSET	-82.8	-127.5	0.300001
		CHANNELS 3  Xrotation Yrotation Zrotation
		JOINT left_knee
		{
			OFFSET	-28.2	-396.7	2.2
			CHANNELS 3  Xrotation Yrotation Zrotation
			JOINT left_ankle
			{
				OFFSET	-11.7	-411.3	35.4
				CHANNELS 3  Xrotation Yrotation Zrotation
				JOINT left_toes
				{
					OFFSET	0	-60	-88.6
					CHANNELS 3  Xrotation Yrotation Zrotation
					JOINT left_foot_ee
					{
						OFFSET	-22.5	-16.5	-42.2
						CHANNELS 3  Xrotation Yrotation Zrotation
						End Site
						{
							OFFSET	1	0	0
						}
					}
				}
			}
		}
	}
	JOINT right_hip
	{
		OFFSET	82.8	-127.5	0.300001
		CHANNELS 3  Xrotation Yrotation Zrotation
		JOINT right_knee
		{
			OFFSET	28.2	-396.7	2.2
			CHANNELS 3  Xrotation Yrotation Zrotation
			JOINT right_ankle
			{
				OFFSET	11.7	-411.3	35.4
				CHANNELS 3  Xrotation Yrotation Zrotation
				JOINT right_toes
				{
					OFFSET	0	-60	-88.6
					CHANNELS 3  Xrotation Yrotation Zrotation
					JOINT right_foot_ee
					{
						OFFSET	22.5	-16.5	-42.2
						CHANNELS 3  Xrotation Yrotation Zrotation
						End Site
						{
							OFFSET	1	0	0
						}
					}
				}
			}
		}
	}
}
MOTION
Frames: 11
Frame Time: 0.02
2800.94 716.97 -1473.77 -0.815598166908 66.9841771308 -0.995530642645 -0.191772 0.055355 0.877125 -0.191344 -0.00056866 0.878869 -0.191142 -0.188153 0.858495 -0.192167 -0.0502136 0.877434 -13.9704 16.2622 -2.81678 -14.8778 32.7218 2.82885 -0.0 0.0 -0.0 2.10533 11.1241 4.88948 9.76451 -26.6171 60.4265 2.60994 -52.2706 1.28076 -43.5049 -3.33139 4.30087 -0.609836 8.31179 -0.488405 -0.0 0.0 -0.0 9.64506 -8.46872 -18.3461 -21.0001 6.50364 -60.0814 0.36446 10.2343 -0.0326372 85.162 4.44593 8.87357 -6.6235 -29.349 24.9744 0.0 0.0 0.0 -15.2594 13.4709 1.89461 -4.97697 0.172683 0.744058 40.6398 -1.42308 -4.94238 -17.9423 0.0 0.0 -0.0 0.0 -0.0 25.8493 21.8926 -5.4925 -0.814844 -0.0326936 -0.120773 7.58183 -17.9114 1.1027 -16.693 0.0 0.0 0.0 0.0 0.0 
2786.82191844 718.655 -1480.4687964 0.43929933773 66.9913065759 -2.72020221136 -0.200178 0.171043 1.08399 -0.19953 0.101724 1.09267 -0.197207 -0.133962 1.08919 -0.19886 0.0397259 1.09668 -13.4922 15.5818 -1.75079 -14.233 30.7624 3.41167 -0.0 0.0 -0.0 1.78614 11.3325 4.36253 7.77871 -26.3975 61.0854 2.56847 -51.8258 1.24806 -43.8471 -3.36928 4.32307 -0.516705 8.26207 0.0923107 -0.0 0.0 -0.0 10.1281 -8.45953 -19.2651 -20.2818 6.59445 -60.3504 0.370483 10.3998 -0.0337159 85.3217 4.46509 8.88086 -6.70685 -29.5319 25.3132 0.0 0.0 0.0 -15.0716 13.405 2.04015 -8.73031 0.259806 1.31335 40.3007 0.782814 -4.89641 -15.5217 0.0 0.0 -0.0 0.0 -0.0 25.0112 21.9033 -5.50263 -1.84196 -0.0714473 -0.273636 6.98798 -19.8375 1.02468 -16.896 0.0 0.0 0.0 0.0 0.0 
2787.00810797 718.655 -1480.847887 0.41315736779 65.4427582905 -2.69163684593 -0.200178 0.171043 1.08399 -0.19953 0.101724 1.09267 -0.197207 -0.133962 1.08919 -0.19886 0.0397259 1.09668 -13.4922 15.5818 -1.75079 -14.233 30.7624 3.41167 -0.0 0.0 -0.0 1.78614 11.3325 4.36253 7.77871 -26.3975 61.0854 2.56847 -51.8258 1.24806 -43.8471 -3.36928 4.32307 -0.516705 8.26207 0.0923107 -0.0 0.0 -0.0 10.1281 -8.45953 -19.2651 -20.2818 6.59445 -60.3504 0.370483 10.3998 -0.0337159 85.3217 4.46509 8.88086 -6.70685 -29.5319 25.3132 0.0 0.0 0.0 -15.0716 13.405 2.04015 -8.73031 0.259806 1.31335 40.3007 0.782814 -4.89641 -15.5217 0.0 0.0 -0.0 0.0 -0.0 25.0112 21.9033 -5.50263 -1.84196 -0.0714473 -0.273636 6.98798 -19.8375 1.02468 -16.896 0.0 0.0 0.0 0.0 0.0 
2769.76624887 716.987 -1493.06360103 0.72666498681 66.2809133202 -3.21692529746 -0.182118 0.233262 1.08617 -0.181477 0.163677 1.09881 -0.177923 -0.0743648 1.10845 -0.179624 0.101616 1.10628 -11.497 15.8025 -3.25994 -12.0238 32.0277 1.42745 -0.0 0.0 -0.0 1.07489 11.5713 3.18024 4.46972 -26.2694 61.3477 2.64705 -52.6611 1.31019 -46.1391 -3.62643 4.4659 -0.330994 6.63112 0.607122 -0.0 0.0 -0.0 10.4607 -8.7019 -19.8748 -19.8011 6.76118 -60.6102 0.348857 9.80484 -0.0299226 85.281 4.4602 8.879 -6.94531 -29.6235 26.6904 0.0 0.0 0.0 -14.4606 11.6598 1.13572 -13.5742 0.316838 2.05419 40.6149 1.91476 -4.91716 -10.8455 0.0 0.0 -0.0 0.0 -0.0 23.335 22.6063 -5.61966 -3.30861 -0.122016 -0.493038 15.1795 -18.6536 2.15664 -16.5192 0.0 0.0 0.0 0.0 0.0 
2753.67647682 720.283 -1501.73642768 1.89066227688 67.3975318167 -4.80129768085 -0.209798 0.316193 1.31794 -0.208861 0.231696 1.33538 -0.202822 -0.0589271 1.35405 -0.205348 0.155639 1.34636 -10.8138 14.7567 -1.55264 -11.181 28.904 2.53203 -0.0 0.0 -0.0 0.867053 12.0645 2.87696 2.52449 -26.209 61.9613 2.37826 -49.6678 1.10074 -46.424 -3.65878 4.48293 -0.236305 6.91395 1.34273 -0.0 0.0 -0.0 10.777 -8.87517 -20.4619 -18.8684 6.69512 -61.1388 0.393172 11.0215 -0.0379327 85.3076 4.46339 8.88021 -7.11429 -29.6452 27.7206 0.0 0.0 0.0 -12.4359 11.9261 0.705316 -20.5129 0.289189 3.11779 40.0848 3.87338 -4.86599 -10.4234 0.0 0.0 -0.0 0.0 -0.0 22.8465 22.0169 -5.44035 -6.74726 -0.218425 -1.01187 19.4085 -19.1013 2.71555 -16.9126 0.0 0.0 0.0 0.0 0.0 
2754.47650412 720.283 -1503.04635994 1.77239345309 65.7969174172 -4.67243997264 -0.209798 0.316193 1.31794 -0.208861 0.231696 1.33538 -0.202822 -0.0589271 1.35405 -0.205348 0.155639 1.34636 -10.8138 14.7567 -1.55264 -11.181 28.904 2.53203 -0.0 0.0 -0.0 0.867053 12.0645 2.87696 2.52449 -26.209 61.9613 2.37826 -49.6678 1.10074 -46.424 -3.65878 4.48293 -0.236305 6.91395 1.34273 -0.0 0.0 -0.0 10.777 -8.87517 -20.4619 -18.8684 6.69512 -61.1388 0.393172 11.0215 -0.0379327 85.3076 4.46339 8.88021 -7.11429 -29.6452 27.7206 0.0 0.0 0.0 -12.4359 11.9261 0.705316 -20.5129 0.289189 3.11779 40.0848 3.87338 -4.86599 -10.4234 0.0 0.0 -0.0 0.0 -0.0 22.8465 22.0169 -5.44035 -6.74726 -0.218425 -1.01187 19.4085 -19.1013 2.71555 -16.9126 0.0 0.0 0.0 0.0 0.0 
2742.30227584 722.601 -1510.86869681 1.74159410895 67.2282922295 -4.99967747306 -0.167568 0.169376 1.38884 -0.166499 0.0806662 1.3968 -0.163949 -0.218701 1.38194 -0.166614 0.00227305 1.39913 -11.674 14.7366 -1.04774 -12.1233 28.6033 3.24941 -0.0 0.0 -0.0 0.246807 12.971 1.93846 0.117407 -26.0934 62.1929 2.25669 -48.1796 1.00909 -46.8928 -3.71221 4.51061 -0.106181 6.52332 2.02812 -0.0 0.0 -0.0 10.4821 -8.89083 -19.8944 -17.8828 6.93038 -62.6793 0.591464 16.3304 -0.0848653 85.3619 4.46991 8.88268 -7.2277 -29.708 28.3706 0.0 0.0 0.0 -10.3525 12.1587 -0.479637 -23.122 0.245515 3.51574 39.9304 7.06086 -4.85497 -9.82319 0.0 0.0 -0.0 0.0 -0.0 22.0473 21.9885 -5.25896 -8.8513 -0.261993 -1.33179 22.2477 -17.1315 3.05361 -18.2433 0.0 0.0 0.0 0.0 0.0 
2742.43849808 722.601 -1511.08313808 1.7265491182 67.0186111599 -4.98334811536 -0.167568 0.169376 1.38884 -0.166499 0.0806662 1.3968 -0.163949 -0.218701 1.38194 -0.166614 0.00227305 1.39913 -11.674 14.7366 -1.04774 -12.1233 28.6033 3.24941 -0.0 0.0 -0.0 0.246807 12.971 1.93846 0.117407 -26.0934 62.1929 2.25669 -48.1796 1.00909 -46.8928 -3.71221 4.51061 -0.106181 6.52332 2.02812 -0.0 0.0 -0.0 10.4821 -8.89083 -19.8944 -17.8828 6.93038 -62.6793 0.591464 16.3304 -0.0848653 85.3619 4.46991 8.88268 -7.2277 -29.708 28.3706 0.0 0.0 0.0 -10.3525 12.1587 -0.479637 -23.122 0.245515 3.51574 39.9304 7.06086 -4.85497 -9.82319 0.0 0.0 -0.0 0.0 -0.0 22.0473 21.9885 -5.25896 -8.8513 -0.261993 -1.33179 22.2477 -17.1315 3.05361 -18.2433 0.0 0.0 0.0 0.0 0.0 
2743.03699219 722.601 -1512.00529373 1.66458205507 66.1112339908 -4.91581203331 -0.167568 0.169376 1.38884 -0.166499 0.0806662 1.3968 -0.163949 -0.218701 1.38194 -0.166614 0.00227305 1.39913 -11.674 14.7366 -1.04774 -12.1233 28.6033 3.24941 -0.0 0.0 -0.0 0.246807 12.971 1.93846 0.117407 -26.0934 62.1929 2.25669 -48.1796 1.00909 -46.8928 -3.71221 4.51061 -0.106181 6.52332 2.02812 -0.0 0.0 -0.0 10.4821 -8.89083 -19.8944 -17.8828 6.93038 -62.6793 0.591464 16.3304 -0.0848653 85.3619 4.46991 8.88268 -7.2277 -29.708 28.3706 0.0 0.0 0.0 -10.3525 12.1587 -0.479637 -23.122 0.245515 3.51574 39.9304 7.06086 -4.85497 -9.82319 0.0 0.0 -0.0 0.0 -0.0 22.0473 21.9885 -5.25896 -8.8513 -0.261993 -1.33179 22.2477 -17.1315 3.05361 -18.2433 0.0 0.0 0.0 0.0 0.0 
2729.54751598 723.276 -1520.17004014 2.91077822918 67.2295818654 -6.62242665468 -0.0936511 0.248263 1.56185 -0.0923061 0.148387 1.57448 -0.0874719 -0.188271 1.57021 -0.0909075 0.0620454 1.58024 -13.1799 14.5333 -1.01432 -13.7661 28.2973 3.63243 -0.0 0.0 -0.0 0.0202342 14.1246 1.69699 -1.28513 -26.7692 62.5404 1.99797 -44.6994 0.821519 -47.5595 -3.78857 4.54921 0.041433 5.21398 2.45217 -0.0 0.0 -0.0 10.8321 -8.99228 -20.5535 -16.6061 8.83726 -63.1726 0.652046 17.9008 -0.102696 85.405 4.47508 8.88463 -7.37585 -29.7668 29.2502 0.0 0.0 0.0 -6.3272 9.89842 -2.46182 -31.7046 -0.024991 4.80391 39.6073 9.20303 -4.83647 -9.1157 0.0 0.0 -0.0 0.0 -0.0 21.0565 22.0454 -5.04336 -11.5806 -0.300953 -1.74873 26.602 -14.9502 3.55257 -18.6937 0.0 0.0 0.0 0.0 0.0 
2730.12862457 723.276 -1521.0521278 2.8274658832 66.5196726529 -6.53183680413 -0.0936511 0.248263 1.56185 -0.0923061 0.148387 1.57448 -0.0874719 -0.188271 1.57021 -0.0909075 0.0620454 1.58024 -13.1799 14.5333 -1.01432 -13.7661 28.2973 3.63243 -0.0 0.0 -0.0 0.0202342 14.1246 1.69699 -1.28513 -26.7692 62.5404 1.99797 -44.6994 0.821519 -47.5595 -3.78857 4.54921 0.041433 5.21398 2.45217 -0.0 0.0 -0.0 10.8321 -8.99228 -20.5535 -16.6061 8.83726 -63.1726 0.652046 17.9008 -0.102696 85.405 4.47508 8.88463 -7.37585 -29.7668 29.2502 0.0 0.0 0.0 -6.3272 9.89842 -2.46182 -31.7046 -0.024991 4.80391 39.6073 9.20303 -4.83647 -9.1157 0.0 0.0 -0.0 0.0 -0.0 21.0565 22.0454 -5.04336 -11.5806 -0.300953 -1.74873 26.602 -14.9502 3.55257 -18.6937 0.0 0.0 0.0 0.0 0.0 
